<?xml version="1.0" encoding="UTF-8"?>
<svg version="1.1" viewBox="0 0 2048 981" width="334" height="160" xmlns="http://www.w3.org/2000/svg">
<path transform="translate(214,45)" d="m0 0h292l17 2 16 5 16 8 13 9 12 11 10 12 9 15 6 15 4 17 1 9v241l-3 21-5 15-8 16-10 14-14 14-14 10-19 9-19 5-7 1-18 1-135 1-11 7-26 15-20 12-29 17-25 15-11 7h-2l-1-2-1-72-20-1-18-4-19-8-15-10-13-12-9-10-9-14-7-15-5-21-1-8-1-72 1-175 3-17 7-19 7-12 8-11 9-10 10-9 14-9 15-7 13-4z" fill="#7100F7"/>
<path transform="translate(521,551)" d="m0 0h3v359l-3 1h-75l-7-8-14-19-12-15-9-12-20-26-14-18-26-34-11-14-16-21-6-8-2-1v186l-2 1h-76l-1-1v-266l5-5 27-14 42-23 5-1 7 8 6 8 9 11 10 13 13 16 10 13 13 16 9 12 13 16 12 16 11 13 10 13 14 18 2 2v-192l5-4 17-10 26-15 17-10z" fill="#7100F7"/>
<path transform="translate(986,666)" d="m0 0h17l16 3 13 5 13 9 11 11 6 9 16-16 14-10 15-7 13-3 8-1h21l16 3 16 7 13 10 8 9 9 16 4 13 2 14v172l-1 1h-72l-1-152-4-12-6-8-8-4-4-1h-18l-10 4-8 6-6 9-4 9-2 13-1 135-36 1h-36l-2-3-1-151-4-11-5-7-8-4-3-1h-18l-11 4-10 9-6 11-2 7-1 11-1 134-2 1h-69l-2-2-1-22 1-216h71l1 1v12l-1 16 8-6 8-8 15-10 12-6 10-3z" fill="#7100F7"/>
<path transform="translate(1792,550)" d="m0 0h2v360l-3 1h-67l-1-1v-22l-7 4-10 8-12 7-16 6-15 3-11 1h-12l-17-2-16-5-16-8-11-8-11-10-11-14-8-14-7-18-5-21-2-19v-12l2-17 5-20 6-15 8-15 9-12 9-10 11-10 18-11 16-6 13-3 8-1h20l17 3 16 6 13 7 14 10v-97l8-6 20-12 26-16zm-134 184-12 3-11 6-12 11-6 9-5 14-2 13 1 13 4 13 6 12 8 10 10 7 12 5 12 2 15-1 12-3 13-7 10-10 6-10 4-10 2-9v-20l-4-14-6-11-9-10-8-6-11-5-8-2z" fill="#7100F7"/>
<path transform="translate(1354,666)" d="m0 0h22l16 3 15 6 11 7 13 11 2 1 1-23h71l1 1v237l-4 2h-68l-1-1v-21l-9 6-13 9-16 7-15 4-16 2-22-1-17-4-16-6-13-8-11-9-9-9-9-13-8-15-7-21-4-24v-28l4-21 7-20 8-15 9-13 9-10 9-9 13-9 17-9 17-5zm20 67-12 2-12 5-9 7-8 8-8 16-3 12v17l3 13 8 16 11 12 10 6 9 3 5 1h18l12-3 14-7 12-11 8-14 3-9 1-6v-18l-3-12-7-14-11-12-14-8-10-3-7-1z" fill="#7100F7"/>
<path transform="translate(685,666)" d="m0 0h20l21 3 15 4 18 8 13 8 14 11 8 8 9 12 8 13 7 17 5 21 1 7v25l-3 19-5 17-10 21-10 14-10 11-11 9-13 8-14 7-19 6-16 3-11 1h-18l-21-3-16-5-16-7-11-7-13-10-13-13-11-15-8-14-7-18-4-17-1-7v-22l4-22 6-17 9-17 9-12 11-12 13-11 15-9 18-8 20-5zm6 68-13 2-13 5-12 9-8 10-6 13-3 13v15l3 12 7 13 9 10 8 6 10 5 12 3h19l15-4 12-7 10-10 7-13 3-12 1-17-2-13-5-12-8-11-10-8-11-5-10-3z" fill="#7100F7"/>
<path transform="translate(1906,666)" d="m0 0h20l15 3 13 5 12 7 13 12 8 10 8 13-1 4-16 7-36 16-4-2-7-9-12-6-5-1h-7l-9 3-5 5-1 8 2 5 16 8 38 13 17 8 14 10 6 5 8 11 6 13 3 13v20l-4 16-8 16-9 11-11 9-17 9-16 5-16 3-18 1-16-1-18-4-12-5-12-7-10-9-7-7-9-13-1-5 19-10 33-17 4 1 8 9 9 6 12 4h8l12-4 8-7 1-7-5-8-12-6-38-13-17-8-10-7-10-9-9-14-5-14-1-5v-24l4-15 7-14 8-10 7-7 15-10 14-6 18-4z" fill="#7100F7"/>
<path transform="translate(397,185)" d="m0 0h12l1 1v138l-1 55h-47l-1-2-1-56v-21h-71l-1 75-1 4h-47l-1-60v-108l1-24 1-1h47l1 3v51l-1 18h73v-72z" fill="#FEFEFE"/>
<path transform="translate(444,223)" d="m0 0 9 1h36l1 1v113l-1 40-1 1h-43l-1-1z" fill="#FEFEFE"/>
<path transform="translate(461,157)" d="m0 0h13l8 3 9 9 4 9v12l-6 12-10 8-9 3-11-1-10-5-7-8-3-10v-7l3-9 7-9 9-6z" fill="#FEFEFE"/>
</svg>
